<?xml version="1.0" encoding="UTF-8" standalone="no"?>
<svg width="140px" height="24px" viewBox="0 0 140 24" version="1.1" xmlns="http://www.w3.org/2000/svg" xmlns:xlink="http://www.w3.org/1999/xlink">
    <!-- Generator: Sketch 3.8.3 (29802) - http://www.bohemiancoding.com/sketch -->
    <title>Gruber</title>
    <desc>Created with Sketch.</desc>
    <defs></defs>
    <g id="Page-1" stroke="none" stroke-width="1" fill="none" fill-rule="evenodd">
        <g id="6-0_menu" transform="translate(-15.000000, -34.000000)" fill="#000000">
            <g id="logo" transform="translate(15.000000, 34.000000)">
                <path d="M20.8326071,22.9242343 C15.6118794,23.4820043 10.815129,23.7608852 6.44221183,23.7608852 C4.25575324,23.7608852 2.64939961,23.2477444 1.62310272,22.2214475 C0.596805834,21.1951507 0.0836650887,19.588797 0.0836650887,17.4023384 L0.0836650887,6.69320709 C0.0836650887,4.3505729 0.613538685,2.64939977 1.67330177,1.58963668 C2.73306486,0.529873596 4.43423799,0 6.77687218,0 L18.8246449,0 L18.8246449,4.68524496 L8.1155136,4.68524496 C6.77686549,4.68524496 6.10755147,5.35455898 6.10755147,6.69320709 L6.10755147,17.4023384 C6.10755147,17.9154869 6.25814713,18.3226529 6.55934295,18.6238487 C6.86053878,18.9250446 7.2677048,19.0756402 7.78085324,19.0756402 C10.3465955,19.0756402 12.6891945,19.019864 14.8087207,18.90831 L14.8087207,14.0557349 L10.4581361,14.0557349 L10.4581361,10.0398106 L20.8326071,10.0398106 L20.8326071,22.9242343 Z M24.1792106,0 L38.2349455,0 C40.5775797,0 42.2787528,0.529873596 43.3385159,1.58963668 C44.398279,2.64939977 44.9281526,4.3505729 44.9281526,6.69320709 L44.9281526,9.70515028 C44.9281526,11.5569468 44.6213837,12.995972 44.0078366,14.0222689 C43.3942896,15.0485657 42.4182066,15.729035 41.0795585,16.063697 L45.262813,23.4262248 L38.736936,23.4262248 L34.888342,16.3983574 L30.203097,16.3983574 L30.203097,23.4262248 L24.1792106,23.4262248 L24.1792106,0 Z M38.9042662,6.69320709 C38.9042662,5.35455898 38.2349522,4.68524496 36.8963041,4.68524496 L30.203097,4.68524496 L30.203097,11.7131124 L36.8963041,11.7131124 C38.2349522,11.7131124 38.9042662,11.0437984 38.9042662,9.70515028 L38.9042662,6.69320709 Z M63.3344721,0 L69.3583585,0 L69.3583585,17.0676781 C69.3583585,19.4103123 68.8284849,21.1114854 67.7687218,22.1712485 C66.7089587,23.2310116 65.0077856,23.7608852 62.6651514,23.7608852 L54.9679632,23.7608852 C52.625329,23.7608852 50.9241559,23.2310116 49.8643928,22.1712485 C48.8046297,21.1114854 48.2747562,19.4103123 48.2747562,17.0676781 L48.2747562,0 L54.2986425,0 L54.2986425,17.0676781 C54.2986425,18.4063262 54.9679565,19.0756402 56.3066047,19.0756402 L61.32651,19.0756402 C62.6651581,19.0756402 63.3344721,18.4063262 63.3344721,17.0676781 L63.3344721,0 Z M73.3742827,0 L86.7606969,0 C88.9471555,0 90.5535092,0.496407895 91.579806,1.48923858 C92.6061029,2.48206926 93.1192437,3.99360341 93.1192437,6.02388638 C93.1192437,7.36253449 92.8292076,8.45016977 92.2491267,9.28682484 C91.6690459,10.1234799 90.9551109,10.7091297 90.1073005,11.0437917 C91.9144754,11.5346293 93.1415511,12.7393946 93.7885644,14.6581235 C94.0116724,15.3497584 94.1232247,16.1529352 94.1232247,17.0676781 C94.1232247,19.2541367 93.610084,20.8604903 92.5837871,21.8867872 C91.5574902,22.9130841 89.9511366,23.4262248 87.764678,23.4262248 L73.3742827,23.4262248 L73.3742827,0 Z M88.0993383,16.063697 C88.0993383,14.7250489 87.4300243,14.0557349 86.0913762,14.0557349 L79.3981691,14.0557349 L79.3981691,18.7409799 L86.0913762,18.7409799 C87.4300243,18.7409799 88.0993383,18.0716658 88.0993383,16.7330177 L88.0993383,16.063697 Z M87.0953573,6.69320709 C87.0953573,5.35455898 86.4260433,4.68524496 85.0873952,4.68524496 L79.3981691,4.68524496 L79.3981691,9.37048993 L85.0873952,9.37048993 C86.4260433,9.37048993 87.0953573,8.70117591 87.0953573,7.3625278 L87.0953573,6.69320709 Z M115.708818,23.4262248 L97.1351679,23.4262248 L97.1351679,0 L115.708818,0 L115.708818,4.68524496 L103.159054,4.68524496 L103.159054,9.20315975 L113.031535,9.20315975 L113.031535,13.8884047 L103.159054,13.8884047 L103.159054,18.7409799 L115.708818,18.7409799 L115.708818,23.4262248 Z M118.3861,0 L132.441835,0 C134.78447,0 136.485643,0.529873596 137.545406,1.58963668 C138.605169,2.64939977 139.135042,4.3505729 139.135042,6.69320709 L139.135042,9.70515028 C139.135042,11.5569468 138.828274,12.995972 138.214726,14.0222689 C137.601179,15.0485657 136.625096,15.729035 135.286448,16.063697 L139.469703,23.4262248 L132.943826,23.4262248 L129.095232,16.3983574 L124.409987,16.3983574 L124.409987,23.4262248 L118.3861,23.4262248 L118.3861,0 Z M133.111156,6.69320709 C133.111156,5.35455898 132.441842,4.68524496 131.103194,4.68524496 L124.409987,4.68524496 L124.409987,11.7131124 L131.103194,11.7131124 C132.441842,11.7131124 133.111156,11.0437984 133.111156,9.70515028 L133.111156,6.69320709 Z" id="Gruber"></path>
            </g>
        </g>
    </g>
</svg>