<?xml version="1.0" encoding="UTF-8" standalone="no"?>
<svg width="40px" height="30px" viewBox="0 0 40 30" version="1.1" xmlns="http://www.w3.org/2000/svg" xmlns:xlink="http://www.w3.org/1999/xlink">
    <!-- Generator: Sketch 3.8.3 (29802) - http://www.bohemiancoding.com/sketch -->
    <title>icon_cards</title>
    <desc>Created with Sketch.</desc>
    <defs></defs>
    <g id="Page-1" stroke="none" stroke-width="1" fill="none" fill-rule="evenodd">
        <g id="2-8_payment" transform="translate(-33.000000, -163.000000)" fill="#9B9B9B">
            <path d="M68.6307431,163 L43.4796303,163 C41.0343832,163 39.0694526,165.008596 39.0694526,167.410178 L39.0694526,169.025787 L37.4538429,169.025787 C35.0085958,169.069453 33,171.034383 33,173.47963 L33,187.714462 C33,190.159709 35.0085958,192.124639 37.4101778,192.124639 L62.5612905,192.124639 C65.0065376,192.124639 66.9714683,190.116043 66.9714683,187.714462 L66.9714683,186.098852 L68.587078,186.098852 C71.0323251,186.098852 72.9972557,184.090256 72.9972557,181.688674 L72.9972557,167.453843 C73.084586,165.008596 71.0759902,163 68.6307431,163 L68.6307431,163 Z M43.4796303,164.266289 L68.6307431,164.266289 C70.0716923,164.266289 71.2943158,165.226921 71.6436368,166.536875 L40.4230715,166.536875 C40.8160576,165.226921 42.0386812,164.266289 43.4796303,164.266289 L43.4796303,164.266289 Z M62.6049557,190.902016 L37.4538429,190.902016 C35.7072378,190.902016 34.3099538,189.461067 34.3099538,187.758127 L34.3099538,173.47963 C34.3099538,171.733025 35.750903,170.335741 37.4538429,170.335741 L62.6049557,170.335741 C64.3515607,170.335741 65.7488448,171.77669 65.7488448,173.47963 L65.7488448,187.714462 C65.7925099,189.461067 64.3515607,190.902016 62.6049557,190.902016 L62.6049557,190.902016 Z M68.6307431,184.832563 L67.0151334,184.832563 L67.0151334,173.47963 C67.0151334,173.130309 66.9714683,172.824653 66.884138,172.475332 L71.8182973,172.475332 L71.8182973,181.688674 C71.8182973,183.435279 70.3773482,184.832563 68.6307431,184.832563 Z M37.4538429,180.422385 L62.6049557,180.422385 C62.9542767,180.422385 63.2162674,180.160395 63.2162674,179.811074 C63.2162674,179.461753 62.9542767,179.199762 62.6049557,179.199762 L37.4538429,179.199762 C37.1045219,179.199762 36.8425311,179.461753 36.8425311,179.811074 C36.798866,180.160395 37.1045219,180.422385 37.4538429,180.422385 Z M42.4316673,183.60994 C42.7809883,183.60994 43.0429791,183.347949 43.0429791,182.998628 C43.0429791,182.649307 42.7809883,182.387316 42.4316673,182.387316 L37.4538429,182.387316 C37.1045219,182.387316 36.8425311,182.649307 36.8425311,182.998628 C36.8425311,183.347949 37.1045219,183.60994 37.4538429,183.60994 L42.4316673,183.60994 Z M50.6843762,182.343651 L45.6628866,182.343651 C45.3135656,182.343651 45.0515749,182.605642 45.0515749,182.954963 C45.0515749,183.304284 45.3135656,183.566275 45.6628866,183.566275 L50.6843762,183.566275 C51.0336972,183.566275 51.2956879,183.304284 51.2956879,182.954963 C51.2956879,182.605642 51.0336972,182.343651 50.6843762,182.343651 Z M63.5655884,185.531205 C63.5655884,183.740935 62.1246393,182.299986 60.3343691,182.299986 C59.6357271,182.299986 58.9807502,182.518311 58.4567687,182.911298 C57.9327871,182.518311 57.2778103,182.299986 56.5791682,182.299986 C54.788898,182.299986 53.3479489,183.740935 53.3479489,185.531205 C53.3479489,187.321475 54.788898,188.762425 56.5791682,188.762425 C57.2778103,188.762425 57.9327871,188.544099 58.4567687,188.151113 C58.9807502,188.544099 59.6357271,188.762425 60.3343691,188.762425 C62.1246393,188.762425 63.5655884,187.321475 63.5655884,185.531205 Z M54.5705724,185.531205 C54.5705724,184.439577 55.4438749,183.566275 56.5355031,183.566275 C56.8848241,183.566275 57.2341451,183.653605 57.539801,183.828265 C57.2341451,184.308582 57.0594846,184.919893 57.0594846,185.531205 C57.0594846,186.142517 57.2341451,186.710164 57.539801,187.234145 C57.2341451,187.408806 56.8848241,187.496136 56.5355031,187.496136 C55.4438749,187.496136 54.5705724,186.622833 54.5705724,185.531205 Z" id="icon_cards"></path>
        </g>
    </g>
</svg>