<?xml version="1.0" encoding="UTF-8" standalone="no"?>
<svg width="22px" height="21px" viewBox="0 0 22 21" version="1.1" xmlns="http://www.w3.org/2000/svg" xmlns:xlink="http://www.w3.org/1999/xlink">
    <!-- Generator: Sketch 3.8.3 (29802) - http://www.bohemiancoding.com/sketch -->
    <title>icon_operator</title>
    <desc>Created with Sketch.</desc>
    <defs></defs>
    <g id="Page-1" stroke="none" stroke-width="1" fill="none" fill-rule="evenodd">
        <g id="2-6-0_registration" transform="translate(-283.000000, -36.000000)" fill="#000000">
            <path d="M302.37136,44.9772772 C301.936098,38.6659793 299.433342,36 294.155791,36 C294.046976,36 285.613776,36.1088155 285.613776,46.1742475 C285.613776,51.0165365 284.688844,52.5399532 284.144767,53.0296229 C283.872728,53.2472539 283.709505,53.2472539 283.655097,53.2472539 C283.383059,53.1928461 283.165428,53.3016616 283.056612,53.5192926 C282.947797,53.7369235 283.002205,54.0089622 283.165428,54.1721855 C283.274243,54.2265932 285.232922,55.9132332 290.782511,56.4029028 C291.108958,56.4029028 291.326589,56.2396796 291.380997,55.9676409 C291.489812,55.4779712 291.54422,54.7162629 291.380997,53.9001468 C291.380997,53.7913313 291.326589,53.7369235 291.272181,53.628108 C291.05455,53.4104771 290.836919,53.1384384 290.619288,52.8119919 C291.217773,53.0840306 291.979482,53.2472539 292.74119,53.3016616 C292.958821,53.6825158 293.339675,53.9545545 293.774937,53.9545545 C294.42783,53.9545545 294.971908,53.4104771 294.971908,52.7575842 C294.971908,52.1046913 294.42783,51.5606139 293.774937,51.5606139 C293.339675,51.5606139 292.958821,51.8326526 292.74119,52.159099 C291.000142,51.9958758 289.585541,51.125352 289.36791,50.0371971 L289.36791,49.7651584 C289.36791,49.7107507 289.36791,49.656343 289.313502,49.5475275 C289.313502,49.5475275 289.313502,49.4931197 289.259095,49.4931197 C289.259095,49.438712 289.204687,49.438712 289.204687,49.3843043 L289.150279,49.3298965 C289.095871,49.2754888 289.095871,49.2754888 289.041464,49.2754888 C289.041464,49.2754888 288.987056,49.2754888 288.987056,49.221081 C288.66061,49.1122656 288.279755,48.9490423 288.116532,48.6770036 C288.007717,48.4593727 288.062124,48.2417417 288.116532,48.0785185 C290.129619,46.3918785 290.945735,44.3787921 291.217773,42.8553754 C293.448491,46.3374708 297.909926,47.4256256 299.48775,47.5344411 C299.705381,47.6976643 299.97742,47.969703 300.031827,48.2961494 C300.031827,48.6225959 299.705381,48.9490423 299.378935,49.1666733 C299.324527,49.221081 299.270119,49.2754888 299.215711,49.3843043 C299.106896,49.5475275 299.052488,49.7651584 299.052488,49.9827894 C299.161304,51.3429829 297.80111,53.0840306 297.039402,53.628108 C296.876178,53.7369235 296.821771,53.9001468 296.821771,54.06337 C296.821771,54.7162629 296.876178,55.3691558 296.984994,55.8588254 C297.039402,56.1308641 297.31144,56.2940873 297.583479,56.2940873 C303.078661,55.8044177 304.874116,54.06337 304.928524,54.0089622 C305.03734,53.7913313 305.03734,53.4648848 304.819709,53.2472539 C304.819709,53.2472539 302.752214,51.0709442 302.37136,44.9772772 Z" id="icon_operator"></path>
        </g>
    </g>
</svg>