<?xml version="1.0" encoding="UTF-8" standalone="no"?>
<svg width="37px" height="26px" viewBox="0 0 37 26" version="1.1" xmlns="http://www.w3.org/2000/svg" xmlns:xlink="http://www.w3.org/1999/xlink">
    <!-- Generator: Sketch 3.8.3 (29802) - http://www.bohemiancoding.com/sketch -->
    <title>icon_money</title>
    <desc>Created with Sketch.</desc>
    <defs></defs>
    <g id="Page-1" stroke="none" stroke-width="1" fill="none" fill-rule="evenodd">
        <g id="2-8_payment" transform="translate(-35.000000, -104.000000)" fill="#9B9B9B">
            <path d="M71.458708,104.725421 C69.8086024,104.237099 68.0843404,104 66.1865423,104 C63.0442287,104 59.8908168,104.664885 56.8408203,105.307574 C53.8664935,105.934624 50.7912737,106.582862 47.8068577,106.582862 C46.056868,106.582862 44.4728473,106.365942 42.9644964,105.91949 C42.7354692,105.852901 42.4882812,105.896789 42.2970889,106.039048 C42.1058966,106.181812 41.9928964,106.406803 41.9928964,106.645415 L41.9928964,109.964796 C41.1277386,109.836158 40.2948666,109.646479 39.4912536,109.380121 C39.2602085,109.303947 39.006967,109.342791 38.8102256,109.48505 C38.6129797,109.627309 38.4964482,109.855327 38.4964482,110.09848 L38.4964482,113.662022 C37.6312904,113.533383 36.7989229,113.343704 35.9948053,113.077347 C35.7647692,113.001172 35.5105188,113.040016 35.3137773,113.182275 C35.1165315,113.324535 35,113.552553 35,113.795705 L35,127.190265 C35,127.504042 35.1937146,127.785534 35.4873134,127.89702 C37.5763037,128.693066 39.8272274,129.079991 42.3692275,129.079991 L42.3707408,129.079991 C44.9722678,129.079991 47.5879198,128.678437 50.1173083,128.291008 C52.59171,127.911145 55.149853,127.519176 57.6363619,127.519176 C59.9922143,127.519176 62.0675841,127.873311 63.9810205,128.602263 C64.21257,128.691553 64.4748919,128.659772 64.6802093,128.518521 C64.8850221,128.377271 65.0071027,128.144208 65.0071027,127.895507 L65.0071027,124.194246 C65.8631801,124.369295 66.6854584,124.602863 67.4774687,124.904533 C67.7100272,124.993823 67.9713402,124.961537 68.1766575,124.820792 C68.3814704,124.679541 68.5035509,124.446478 68.5035509,124.197777 L68.5035509,120.302801 C69.3671953,120.453132 70.1970406,120.661476 70.9981313,120.93641 C71.2291763,121.015611 71.4844357,120.977776 71.683195,120.836526 C71.8819543,120.694771 71.9999991,120.465239 71.9999991,120.220574 L71.9999991,105.451346 C72.0005036,105.115877 71.7795479,104.820765 71.458708,104.725421 L71.458708,104.725421 Z M63.4937072,126.834112 C61.6957932,126.277183 59.7682317,126.005276 57.6363619,126.005276 C55.0343304,126.005276 52.418174,126.40683 49.8877766,126.794259 C47.4143838,127.173617 44.8562408,127.566091 42.3702364,127.566091 L42.368723,127.566091 C40.2126388,127.566091 38.2911309,127.268961 36.5128911,126.659063 L36.5128911,114.80968 C37.1565887,114.97918 37.8174381,115.105297 38.4964482,115.197109 L38.4964482,123.492535 C38.4964482,123.806312 38.6901628,124.087804 38.9837616,124.199291 C41.0727519,124.995337 43.3236756,125.382261 45.8666846,125.382261 L45.8676935,125.382261 C48.469725,125.382261 51.085377,124.981212 53.6147654,124.593278 C56.0886627,124.21392 58.6468056,123.821446 61.133819,123.821446 C61.9535749,123.821446 62.7375138,123.867352 63.4942116,123.95412 L63.4942116,126.834112 L63.4937072,126.834112 Z M66.9901554,123.135878 C65.1922414,122.578948 63.2651844,122.307042 61.1333145,122.307042 C58.5307786,122.307042 55.9146222,122.708596 53.3847293,123.09653 C50.9113365,123.475887 48.353698,123.867857 45.8671891,123.867857 L45.8661801,123.867857 C43.7095915,123.867857 41.7875791,123.570727 40.0098438,122.960829 L40.0098438,111.11195 C40.6535414,111.281451 41.3143907,111.407567 41.9934009,111.499379 L41.9934009,120.075288 C41.9934009,120.39865 42.1987182,120.686195 42.5049286,120.791124 C44.4632624,121.462567 46.5537662,121.78946 48.895998,121.78946 C51.6579449,121.788956 54.4345213,121.334433 57.1192851,120.894539 C59.7445219,120.46423 62.4595535,120.019796 65.0984109,120.019796 C65.7506844,120.019796 66.3787436,120.050064 66.9906598,120.105051 L66.9906598,123.135878 L66.9901554,123.135878 Z M55.2377876,113.513204 L54.0042125,113.513204 L54.0042125,114.522135 L55.2377876,114.522135 L55.2377876,115.0266 L54.0042125,115.0266 L54.0042125,116.03553 L55.2377876,116.03553 L55.2377876,117.044461 L56.4841713,117.044461 L56.4841713,116.03553 L59.5533296,116.03553 L59.5533296,115.0266 L56.4841713,115.0266 L56.4841713,114.379269 L57.967023,114.379269 C58.7979497,114.379269 59.444125,114.183856 59.9055685,113.793025 C60.3670119,113.402194 60.5977302,112.855367 60.5977302,112.152528 C60.5977302,111.46611 60.3620855,110.914357 59.8907892,110.497251 C59.4194929,110.080146 58.7831703,109.871596 57.9818023,109.871596 L55.2377876,109.871596 L55.2377876,113.513204 Z M70.487108,119.193483 C68.8188417,118.731392 67.0456465,118.505896 65.0979064,118.505896 C62.3354551,118.505896 59.5593832,118.960924 56.8736105,119.400818 C54.2483737,119.831126 51.5338465,120.275056 48.8949891,120.27556 C46.9270704,120.27556 45.157911,120.029381 43.5057875,119.524916 L43.5057875,107.627105 C44.8612855,107.942395 46.2778237,108.096257 47.8063532,108.096257 C50.9486669,108.096257 54.1020788,107.431372 57.1520753,106.788684 C60.126402,106.161633 63.2016218,105.513396 66.1860379,105.513396 C67.7281879,105.513396 69.1406905,105.681887 70.4866036,106.026941 L70.4866036,119.193483 L70.487108,119.193483 Z M56.4841713,113.379206 L57.9818023,113.379206 C58.4251821,113.379206 58.7634594,113.274931 58.9966444,113.066378 C59.2298293,112.857826 59.34642,112.556496 59.34642,112.162381 C59.34642,111.774834 59.2281872,111.465294 58.9917179,111.233751 C58.7552487,111.002208 58.4301084,110.883154 58.0162872,110.876586 L56.4841713,110.876586 L56.4841713,113.379206 Z" id="icon_money"></path>
        </g>
    </g>
</svg>