<?xml version="1.0" encoding="UTF-8" standalone="no"?>
<svg width="20px" height="28px" viewBox="0 0 20 28" version="1.1" xmlns="http://www.w3.org/2000/svg" xmlns:xlink="http://www.w3.org/1999/xlink">
    <!-- Generator: Sketch 3.8.3 (29802) - http://www.bohemiancoding.com/sketch -->
    <title>icon_menu_zakaz</title>
    <desc>Created with Sketch.</desc>
    <defs></defs>
    <g id="Page-1" stroke="none" stroke-width="1" fill="none" fill-rule="evenodd">
        <g id="6-0_menu" transform="translate(-20.000000, -88.000000)" fill="#000000">
            <path d="M22.8176305,92.1821394 L20,92.1821394 L20,115.511293 L40,115.511293 L40,92.1821394 L37.1824212,92.1821394 C36.8407767,91.4071121 36.0650895,90.8647638 35.1648885,90.8647638 L32.594222,90.8647638 L32.594222,90.594222 C32.594222,89.1635721 31.429957,88 29.9996536,88 C28.5693501,88 27.405778,89.1639185 27.405778,90.594222 L27.405778,90.8647638 L24.8351115,90.8647638 C23.9351671,90.8647638 23.1593563,91.4071121 22.8176305,92.1821394 Z M22.6316336,93.3772343 L21.1950949,93.3772343 L21.1950949,114.316198 L38.8049051,114.316198 L38.8049051,93.3772343 L37.3683664,93.3772343 L37.3683664,95.2713731 L37.3687128,95.2713731 L22.6316336,95.2713731 L22.6316336,93.3772343 Z M23.827075,94.0762782 L36.1736178,94.0762782 L36.1736178,93.0678952 C36.1736178,92.5119163 35.7208674,92.0598587 35.1652349,92.0598587 L31.3987807,92.0598587 L31.3987807,90.594222 C31.3987807,89.8227795 30.771096,89.1950949 29.9996536,89.1950949 C29.2285576,89.1950949 28.6008729,89.8227795 28.6008729,90.594222 L28.6008729,92.0598587 L24.8351115,92.0598587 C24.2791326,92.0598587 23.8267286,92.5119163 23.8267286,93.0678952 L23.8267286,94.0762782 L23.827075,94.0762782 Z M28.5385202,107.485728 L24.2961064,103.242968 L25.141333,102.398088 L28.5385202,105.795621 L35.751351,98.583137 L36.5962311,99.4283636 L28.5385202,107.485728 Z" id="icon_menu_zakaz"></path>
        </g>
    </g>
</svg>