<?xml version="1.0" encoding="UTF-8" standalone="no"?>
<svg width="26px" height="24px" viewBox="0 0 26 24" version="1.1" xmlns="http://www.w3.org/2000/svg" xmlns:xlink="http://www.w3.org/1999/xlink">
    <!-- Generator: Sketch 3.8.3 (29802) - http://www.bohemiancoding.com/sketch -->
    <title>icon_menu_operator</title>
    <desc>Created with Sketch.</desc>
    <defs></defs>
    <g id="Page-1" stroke="none" stroke-width="1" fill="none" fill-rule="evenodd">
        <g id="6-0_menu" transform="translate(-18.000000, -151.000000)" fill="#000000">
            <path d="M43.4740934,171.13584 C43.4740934,171.13584 41.0603334,168.59504 40.6156934,161.4808 L40.6156934,161.4808 C40.1075334,154.11248 37.1856135,151 31.0241736,151 C30.8971336,151 21.0515337,151.12704 21.0515337,162.87824 C21.0515337,168.53152 19.9716937,170.31008 19.3364937,170.88176 C19.0188937,171.13584 18.8283337,171.13584 18.7648137,171.13584 L18.7648137,171.13584 C18.4472137,171.07232 18.1931337,171.19936 18.0660937,171.45344 C17.9390537,171.70752 18.0025737,172.02512 18.1931337,172.21568 C18.3201737,172.2792 20.6068937,174.24832 27.0859336,174.82 L27.1494536,174.82 C27.4670536,174.82 27.7211336,174.62944 27.7846536,174.31184 C27.9116936,173.74016 27.9752136,172.85088 27.7846536,171.89808 C27.7846536,171.77104 27.7211336,171.70752 27.6576136,171.58048 C27.4035336,171.3264 27.1494536,171.0088 26.8953736,170.62768 C27.5940936,170.94528 28.4833736,171.13584 29.3726536,171.19936 C29.6267336,171.644 30.0713736,171.9616 30.5795336,171.9616 C31.3417736,171.9616 31.9769735,171.3264 31.9769735,170.56416 C31.9769735,169.80192 31.3417736,169.16672 30.5795336,169.16672 C30.0713736,169.16672 29.6267336,169.48432 29.3726536,169.86544 C27.3400136,169.67488 25.6884936,168.65856 25.4344136,167.38816 L25.4344136,167.07056 C25.4344136,167.00704 25.4344136,166.94352 25.3708936,166.81648 C25.3708936,166.81648 25.3708936,166.75296 25.3073736,166.75296 C25.3073736,166.68944 25.2438536,166.68944 25.2438536,166.62592 L25.1803336,166.5624 C25.1168136,166.49888 25.1168136,166.49888 25.0532936,166.49888 C25.0532936,166.49888 24.9897736,166.49888 24.9897736,166.43536 C24.9897736,166.43536 24.9897736,166.43536 24.9262536,166.43536 C24.6086536,166.30832 24.1640136,166.11776 23.9734536,165.80016 C23.8464137,165.54608 23.9099337,165.292 23.9734536,165.10144 C26.3236936,163.13232 27.2764936,160.78208 27.5940936,159.00352 C30.1984136,163.0688 35.4070535,164.3392 37.2491335,164.46624 C37.5032135,164.6568 37.8208135,164.9744 37.8843335,165.35552 C37.8843335,165.73664 37.5032135,166.11776 37.1220935,166.37184 C37.0585735,166.43536 36.9950535,166.49888 36.9315335,166.62592 C36.8044935,166.81648 36.7409735,167.07056 36.7409735,167.32464 C36.8680135,168.91264 35.2800135,170.94528 34.3907335,171.58048 C34.2001735,171.70752 34.1366535,171.89808 34.1366535,172.08864 C34.1366535,172.85088 34.2001735,173.61312 34.3272135,174.1848 C34.3907335,174.5024 34.7083335,174.69296 35.0259335,174.69296 C41.4414534,174.12128 43.5376134,172.08864 43.6011334,172.02512 C43.7281734,171.77104 43.7281734,171.38992 43.4740934,171.13584 L43.4740934,171.13584 Z M35.3435335,173.42256 C35.2800135,173.10496 35.2800135,172.78736 35.2800135,172.40624 C36.3598535,171.51696 38.0113735,169.35728 37.8843335,167.32464 C38.6465735,166.75296 39.0276935,166.05424 39.0276935,165.35552 C38.9641735,164.14864 37.8208135,163.44992 37.6937735,163.32288 C37.6302535,163.25936 37.5032135,163.25936 37.3761735,163.25936 C35.7881735,163.19584 28.9915336,161.60784 27.5940936,156.0816 C27.5305736,155.764 27.2129736,155.57344 26.8318536,155.63696 C26.4507336,155.70048 26.2601736,156.01808 26.3236936,156.33568 C26.3236936,156.52624 27.0224136,160.97264 22.9571337,164.27568 C22.8936137,164.3392 22.8300937,164.40272 22.7665737,164.52976 C22.4489737,165.16496 22.4489737,165.86368 22.7030537,166.43536 C22.8936137,166.81648 23.2112137,167.26112 23.9734536,167.64224 C24.1640136,169.48432 25.3708936,171.13584 26.3872136,172.34272 C26.4507336,172.78736 26.4507336,173.16848 26.4507336,173.48608 C23.1476937,173.10496 21.1150537,172.40624 19.9716937,171.83456 C21.4326537,170.6912 22.1948937,167.64224 22.1948937,162.81472 C22.1948937,152.33392 30.5795336,152.20688 30.8971336,152.20688 C35.4705735,152.20688 38.7100935,153.79488 39.2182535,161.54432 C39.5993734,167.32464 41.1873734,170.31008 42.0131334,171.45344 C41.3144134,171.9616 39.2817735,172.97792 35.3435335,173.42256 L35.3435335,173.42256 Z" id="icon_menu_operator"></path>
        </g>
    </g>
</svg>